<?xml version="1.0" encoding="utf-8"?>
<!-- Generator: Adobe Illustrator 19.2.0, SVG Export Plug-In . SVG Version: 6.00 Build 0)  -->
<svg version="1.1" id="Layer_1" xmlns="http://www.w3.org/2000/svg" xmlns:xlink="http://www.w3.org/1999/xlink" x="0px" y="0px"
	 viewBox="0 0 1047.4 402.9" style="enable-background:new 0 0 1047.4 402.9;" xml:space="preserve">
<style type="text/css">
	.st0{opacity:0.3;fill:#363942;}
	.st1{fill:#FFFFFF;}
	.st2{fill:#FEF1DC;}
	.st3{fill:#363942;}
	.st4{fill:#A5DFF9;}
</style>
<g>
	<g>
		<g>
			<ellipse class="st0" cx="134.1" cy="384.6" rx="95.1" ry="4.8"/>
			<circle class="st1" cx="135" cy="265.8" r="114.7"/>
			<path class="st2" d="M248.7,265.8c0,63.3-51.3,114.7-114.7,114.7S19.4,329.1,19.4,265.8c0,33.4,51.3,89.3,114.7,89.3
				S248.7,300.5,248.7,265.8z"/>
			<path class="st3" d="M134.1,384.6c-65.5,0-118.9-53.3-118.9-118.9c0-65.5,53.3-118.9,118.9-118.9s118.9,53.3,118.9,118.9
				C252.9,331.3,199.6,384.6,134.1,384.6z M134.1,155.3c-60.9,0-110.5,49.6-110.5,110.5s49.6,110.5,110.5,110.5
				s110.5-49.6,110.5-110.5S195,155.3,134.1,155.3z"/>
			<circle class="st3" cx="68.7" cy="257.2" r="7.5"/>
			<circle class="st3" cx="198.7" cy="257.2" r="7.5"/>
			<path class="st3" d="M165.4,310.7c-1.6,0-3.1-0.8-4-2.2c-0.2-0.3-5-7.2-15.4-7.2c-5.4,0-8.1,1.8-11.5,4.2
				c-3.6,2.4-7.6,5.2-14.3,5.2c-13.4,0-21.1-11-21.4-11.5c-1.5-2.2-1-5.2,1.2-6.7c2.2-1.5,5.2-1,6.7,1.2c0.1,0.1,5.3,7.3,13.5,7.3
				c3.7,0,5.9-1.5,8.9-3.5c3.8-2.6,8.6-5.9,17-5.9c15.7,0,23.1,11.1,23.4,11.6c1.5,2.2,0.8,5.2-1.4,6.7
				C167.3,310.4,166.3,310.7,165.4,310.7z"/>
			<path class="st2" d="M203.4,216.3c-2,0-3.8-1.2-4.6-3.1c-2.6-6.7-5.8-9.6-10.1-13c-2.1-1.7-2.5-4.8-0.8-6.9
				c1.7-2.1,4.8-2.5,6.9-0.8c5.2,4.1,9.8,8.2,13.2,17.2c1,2.5-0.3,5.4-2.8,6.3C204.6,216.2,204,216.3,203.4,216.3z"/>
			<path class="st2" d="M178.8,192.1c-0.7,0-1.3-0.1-2-0.4c-4.4-2-8.4-3.5-8.4-3.6c-2.5-1-3.7-3.9-2.7-6.4c1-2.5,3.9-3.7,6.4-2.7
				c0.2,0.1,4.1,1.7,8.8,3.7c2.5,1.1,3.6,4,2.5,6.5C182.5,191.1,180.7,192.1,178.8,192.1z"/>
		</g>
		<g>
			<path d="M151.9,68.7v16.8h-9.5V68.7h-35.6l-1-7.3l36.6-47.9h9.5V60h10.4v8.7H151.9z M142.4,60V26.7L117.3,60H142.4z"/>
		</g>
	</g>
	<g>
		<g>
			<ellipse class="st0" cx="913.3" cy="382.9" rx="95.1" ry="4.8"/>
			<g>
				<circle class="st1" cx="914.3" cy="264" r="114.7"/>
				<path class="st2" d="M1028,264c0,63.3-51.3,114.7-114.7,114.7S798.7,327.4,798.7,264c0,33.4,51.3,89.3,114.7,89.3
					S1028,298.7,1028,264z"/>
				<path class="st3" d="M913.3,382.9c-65.5,0-118.9-53.3-118.9-118.9c0-65.5,53.3-118.9,118.9-118.9s118.9,53.3,118.9,118.9
					C1032.2,329.6,978.9,382.9,913.3,382.9z M913.3,153.6c-60.9,0-110.5,49.6-110.5,110.5s49.6,110.5,110.5,110.5
					c60.9,0,110.5-49.6,110.5-110.5S974.3,153.6,913.3,153.6z"/>
			</g>
			<path class="st3" d="M895.3,309.6c-0.9,0-1.7-0.2-2.6-0.6c-3.2-1.4-4.6-5.2-3.2-8.3c0.8-1.8,8.5-15.2,22.9-15.2
				c14.3,0,22.1,13.3,23,15.1c1.4,3.2,0.1,6.9-3.1,8.4c-3.2,1.4-6.9,0.1-8.3-3.1c-1.3-2.8-6.2-7.8-11.5-7.8
				c-5.5,0-10.4,5.5-11.4,7.7C900,308.3,897.7,309.6,895.3,309.6z"/>
			<path class="st2" d="M968,200.5c-1.4,0-2.8-0.6-3.8-1.8c-4.5-5.6-8.5-7.4-13.7-9.3c-2.5-1-3.8-3.8-2.9-6.3c1-2.5,3.8-3.8,6.3-2.9
				c6.2,2.3,11.8,4.9,17.8,12.3c1.7,2.1,1.4,5.2-0.7,6.9C970.2,200.1,969.1,200.5,968,200.5z"/>
			<path class="st2" d="M937.2,185c-0.2,0-0.3,0-0.5,0c-4.4-0.5-7.4-0.2-7.4-0.2c-2.7,0.2-5.1-1.8-5.3-4.5c-0.2-2.7,1.8-5.1,4.4-5.3
				c0.2,0,3.9-0.3,9.3,0.2c2.7,0.3,4.6,2.7,4.4,5.4C941.8,183.2,939.7,185,937.2,185z"/>
			<path class="st3" d="M824.9,250.4c-1.8,0-3.3-1.3-3.5-3.1c-0.2-1.9,1.2-3.7,3.1-3.9c8.8-1,15.1-4.4,18.7-10.2
				c2.6-4.1,2.8-8,2.8-8c0.1-1.9,1.6-3.4,3.5-3.4c0,0,0.1,0,0.1,0c1.9,0.1,3.4,1.7,3.4,3.6c0,0.2-1,21.9-27.6,24.9
				C825.2,250.4,825.1,250.4,824.9,250.4z"/>
			<path class="st3" d="M1000.7,250.4c1.8,0,3.3-1.3,3.5-3.1c0.2-1.9-1.2-3.7-3.1-3.9c-8.8-1-15.1-4.4-18.7-10.2
				c-2.6-4.1-2.8-8-2.8-8c-0.1-1.9-1.6-3.4-3.5-3.4c0,0-0.1,0-0.1,0c-1.9,0.1-3.4,1.7-3.4,3.6c0,0.2,1,21.9,27.6,24.9
				C1000.4,250.4,1000.6,250.4,1000.7,250.4z"/>
			<path class="st3" d="M970.3,261.9c0.6,0.8,1.6,1,2.5,0.4c1.3-0.8,2.9-1.3,4.6-1.3c1.7,0,3.2,0.5,4.6,1.3c0.8,0.5,1.9,0.4,2.5-0.4
				c1.3-1.9,1.9-4.2,1.4-6.8c-0.7-3.3-3.3-5.9-6.6-6.6c-5.5-1.2-10.4,3.1-10.4,8.4C968.7,258.8,969.3,260.5,970.3,261.9z"/>
			<path class="st3" d="M841,261.9c0.6,0.8,1.6,1,2.5,0.4c1.3-0.8,2.9-1.3,4.6-1.3c1.7,0,3.2,0.5,4.6,1.3c0.8,0.5,1.9,0.4,2.5-0.4
				c1.3-1.9,1.9-4.2,1.4-6.8c-0.7-3.3-3.3-5.9-6.6-6.6c-5.5-1.2-10.4,3.1-10.4,8.4C839.4,258.8,840,260.5,841,261.9z"/>
			<path class="st4" d="M850.2,280.4c0,4.6-4,8.3-8.7,7.8c-4.5-0.4-7.7-4.8-7-9.2c0.6-3.6,3.2-6.9,7.1-12.9c0.3-0.5,1-0.4,1.3,0
				C847.1,272.9,850.2,276.2,850.2,280.4z"/>
		</g>
		<g>
			<path d="M931.2,68.7v16.8h-9.5V68.7h-35.6l-1-7.3l36.6-47.9h9.5V60h10.4v8.7H931.2z M921.7,60V26.7L896.6,60H921.7z"/>
		</g>
	</g>
	<g>
		<g>
			<ellipse class="st0" cx="523.7" cy="383.8" rx="95.1" ry="4.8"/>
			<circle class="st1" cx="524.7" cy="264.9" r="114.7"/>
			<path class="st2" d="M638.4,264.9c0,63.3-51.3,114.7-114.7,114.7S409,328.2,409,264.9c0,33.4,51.3,89.3,114.7,89.3
				S638.4,299.6,638.4,264.9z"/>
			<path class="st3" d="M523.7,383.8c-65.5,0-118.9-53.3-118.9-118.9c0-65.5,53.3-118.9,118.9-118.9s118.9,53.3,118.9,118.9
				C642.6,330.4,589.2,383.8,523.7,383.8z M523.7,154.4c-60.9,0-110.5,49.6-110.5,110.5s49.6,110.5,110.5,110.5
				s110.5-49.6,110.5-110.5S584.6,154.4,523.7,154.4z"/>
			<path class="st2" d="M578.4,201.3c-1.4,0-2.8-0.6-3.8-1.8c-4.5-5.6-8.5-7.4-13.7-9.3c-2.5-1-3.8-3.8-2.9-6.3
				c1-2.5,3.8-3.8,6.3-2.9c6.2,2.3,11.8,4.9,17.8,12.3c1.7,2.1,1.4,5.2-0.7,6.9C580.5,200.9,579.4,201.3,578.4,201.3z"/>
			<path class="st2" d="M547.5,185.9c-0.2,0-0.3,0-0.5,0c-4.4-0.5-7.4-0.2-7.4-0.2c-2.7,0.2-5.1-1.8-5.3-4.5
				c-0.2-2.7,1.8-5.1,4.4-5.3c0.2,0,3.9-0.3,9.3,0.2c2.7,0.3,4.6,2.7,4.4,5.4C552.1,184,550,185.9,547.5,185.9z"/>
			<circle class="st3" cx="522.1" cy="301" r="12.5"/>
			<circle class="st3" cx="458.3" cy="256.3" r="7.5"/>
			<circle class="st3" cx="588.3" cy="256.3" r="7.5"/>
			<path class="st3" d="M428.6,251.5c-1.2,0-2.3-0.8-2.7-2c-0.4-1.5,0.4-3,1.9-3.5l0,0c0.2,0,16.6-5.2,28.2-22
				c0.9-1.3,2.6-1.6,3.9-0.7c1.3,0.9,1.6,2.6,0.7,3.9c-12.7,18.5-30.5,24-31.2,24.2C429.2,251.4,428.9,251.5,428.6,251.5z"/>
			<path class="st3" d="M618,251.1c-0.3,0-0.5,0-0.8-0.1c-0.7-0.2-18.5-5.7-31.2-24.2c-0.9-1.3-0.6-3,0.7-3.9c1.3-0.9,3-0.6,3.9,0.7
				c11.6,16.8,28,21.9,28.2,22c1.5,0.4,2.3,2,1.9,3.5C620.4,250.3,619.2,251.1,618,251.1z"/>
		</g>
		<g>
			<path d="M513.1,85.5c-9.1,0-14-4.9-14-14v-44c0-9.1,4.9-14,14-14h21.1c9.1,0,14,4.9,14,14v44c0,9.1-4.9,14-14,14H513.1z
				 M508.7,71.2c0,3.6,1.9,5.5,5.5,5.5h18.9c3.6,0,5.5-1.9,5.5-5.5V27.8c0-3.6-1.9-5.5-5.5-5.5h-18.9c-3.6,0-5.5,1.9-5.5,5.5V71.2z"
				/>
		</g>
	</g>
</g>
</svg>
