<?xml version="1.0" encoding="utf-8"?>
<!-- Generator: Adobe Illustrator 19.2.0, SVG Export Plug-In . SVG Version: 6.00 Build 0)  -->
<svg version="1.1" id="Layer_1" xmlns="http://www.w3.org/2000/svg" xmlns:xlink="http://www.w3.org/1999/xlink" x="0px" y="0px"
	 viewBox="0 0 763.9 476.9" style="enable-background:new 0 0 763.9 476.9;" xml:space="preserve">
<style type="text/css">
	.st0{fill:#E2E5ED;}
	.st1{fill:#2D364C;}
	.st2{fill:#414C60;}
	.st3{fill:none;stroke:#232A40;stroke-width:8;stroke-linecap:round;stroke-linejoin:round;stroke-miterlimit:10;}
	.st4{fill:#FFD073;}
	.st5{fill:#F0BF55;}
	.st6{fill:none;stroke:#E2E5ED;stroke-width:8;stroke-linecap:round;stroke-linejoin:round;stroke-miterlimit:10;}
	.st7{fill:#F5F4EA;}
	.st8{fill:#E2AF4A;}
	.st9{opacity:7.000000e-02;}
	.st10{clip-path:url(#SVGID_2_);}
	.st11{fill:none;stroke:#232A40;stroke-width:13;stroke-linecap:round;stroke-linejoin:round;stroke-miterlimit:10;}
	.st12{fill:#E5E0C8;}
	.st13{fill:#FFFFFF;}
	.st14{fill:none;stroke:#EEBE5E;stroke-width:7;stroke-linecap:round;stroke-linejoin:round;stroke-miterlimit:10;}
	.st15{fill:none;stroke:#232A40;stroke-width:12;stroke-linecap:round;stroke-linejoin:round;stroke-miterlimit:10;}
</style>
<g>
	<ellipse class="st0" cx="378.2" cy="398.5" rx="199.4" ry="9.1"/>
	<ellipse class="st0" cx="284.5" cy="401.9" rx="106.6" ry="16.1"/>
	<path class="st1" d="M542.4,208.7v94.7c0,9.7-10.5,15.8-18.9,10.9l-35.6-33v-50.6l35.6-33C531.9,192.9,542.4,199,542.4,208.7z"/>
	<path class="st2" d="M523.6,197.7c3.7,2.1,6.4,6.1,6.4,11v94.7c0,4.9-2.7,8.9-6.4,11c8.4,4.7,18.8-1.3,18.8-11v-94.7
		C542.4,199,532,192.9,523.6,197.7z"/>
	<path class="st3" d="M523.5,197.7l-35.6,33v50.6l35.6,33c8.4,4.9,18.9-1.2,18.9-10.9v-94.7C542.4,199,531.9,192.9,523.5,197.7z"/>
	<g>
		<path class="st4" d="M332.3,300.5v-88.8c0-13.7,5.5-24.8,12.4-24.8h-8.9c-6.8,0-12.4,11.1-12.4,24.8v88.8
			c0,13.7,5.5,24.8,12.4,24.8h8.9C337.8,325.3,332.3,314.2,332.3,300.5z"/>
	</g>
	<path class="st5" d="M506.6,211.7v88.8c0,13.7-11.1,24.8-24.8,24.8H318.2c-13.7,0-24.8-11.1-24.8-24.8v-88.8
		c0-13.7,11.1-24.8,24.8-24.8h126.5h30.3h6.9C495.5,186.9,506.6,198,506.6,211.7z"/>
	<g>
		<path class="st4" d="M311.2,300.5v-88.8c0-13.7,11.1-24.8,24.8-24.8h-17.8c-13.7,0-24.8,11.1-24.8,24.8v88.8
			c0,13.7,11.1,24.8,24.8,24.8H336C322.3,325.3,311.2,314.2,311.2,300.5z"/>
	</g>
	<g>
		<path class="st4" d="M329.2,300.5v-88.8c0-13.7,6.1-24.8,13.6-24.8H333c-7.5,0-13.6,11.1-13.6,24.8v88.8
			c0,13.7,6.1,24.8,13.6,24.8h9.8C335.3,325.3,329.2,314.2,329.2,300.5z"/>
	</g>
	<g>
		<path class="st4" d="M481.8,186.9h-6.9h-14.8c13.7,0,24.8,11.1,24.8,24.8v88.8c0,13.7-11.1,24.8-24.8,24.8h21.7
			c13.7,0,24.8-11.1,24.8-24.8v-88.8C506.6,198,495.5,186.9,481.8,186.9z"/>
	</g>
	<path class="st3" d="M474.9,186.9h6.9c13.7,0,24.8,11.1,24.8,24.8v88.8c0,13.7-11.1,24.8-24.8,24.8H318.2
		c-13.7,0-24.8-11.1-24.8-24.8v-88.8c0-13.7,11.1-24.8,24.8-24.8h126.5H474.9z"/>
	<rect x="271" y="207" class="st1" width="23.6" height="30.3"/>
	<rect x="269.8" y="210.2" class="st2" width="11.2" height="23.6"/>
	<polygon class="st3" points="293.4,207 293.4,237.2 274.1,237.2 268.1,241.3 268.1,201.5 273.9,207 	"/>
	<line class="st6" x1="559.1" y1="256" x2="596.1" y2="256"/>
	<line class="st6" x1="559.1" y1="236.4" x2="583.6" y2="220.5"/>
	<line class="st6" x1="559.1" y1="275.7" x2="583.6" y2="291.5"/>
	<g>
		<path class="st1" d="M492.3,136.5c0-26.7-21.6-48.3-48.3-48.3c-26.7,0-48.3,21.6-48.3,48.3s21.6,48.3,48.3,48.3
			C470.7,184.8,492.3,163.2,492.3,136.5z"/>
		<path class="st2" d="M444,88.2c-3.3,0-6.6,0.3-9.7,1c22,4.5,38.6,24,38.6,47.3c0,23.3-16.6,42.8-38.6,47.3c3.1,0.6,6.4,1,9.7,1
			c26.7,0,48.3-21.6,48.3-48.3C492.3,109.8,470.7,88.2,444,88.2z"/>
		<path class="st3" d="M492.3,136.5c0,26.7-21.6,48.3-48.3,48.3c-26.7,0-48.3-21.6-48.3-48.3s21.6-48.3,48.3-48.3
			C470.7,88.2,492.3,109.8,492.3,136.5z"/>
		<circle class="st7" cx="444" cy="110.1" r="5.1"/>
		<circle class="st7" cx="444" cy="163.7" r="5.1"/>
		<circle class="st7" cx="471" cy="136.5" r="5.1"/>
		<circle class="st7" cx="417.5" cy="136.5" r="5.1"/>
		
			<ellipse transform="matrix(0.7071 -0.7071 0.7071 0.7071 41.0262 335.208)" class="st7" cx="425.1" cy="118.1" rx="5.1" ry="5.1"/>
		<ellipse transform="matrix(0.7071 -0.7071 0.7071 0.7071 25.3328 373.095)" class="st7" cx="463" cy="156" rx="5.1" ry="5.1"/>
		
			<ellipse transform="matrix(0.7071 -0.7071 0.7071 0.7071 52.3422 361.769)" class="st7" cx="462.9" cy="117.7" rx="5.1" ry="5.1"/>
		
			<ellipse transform="matrix(0.7071 -0.7071 0.7071 0.7071 14.5511 346.1152)" class="st7" cx="425.1" cy="155.5" rx="5.1" ry="5.1"/>
		<path class="st1" d="M393.2,149.6c0-20.2-16.4-36.5-36.5-36.5s-36.5,16.4-36.5,36.5s16.4,36.5,36.5,36.5S393.2,169.8,393.2,149.6z
			"/>
		<path class="st2" d="M356.7,113.1c-2.5,0-5,0.3-7.4,0.7c16.6,3.4,29.2,18.1,29.2,35.8c0,17.7-12.5,32.4-29.2,35.8
			c2.4,0.5,4.8,0.7,7.4,0.7c20.2,0,36.5-16.3,36.5-36.5C393.2,129.5,376.9,113.1,356.7,113.1z"/>
		<path class="st3" d="M393.2,149.6c0,20.2-16.4,36.5-36.5,36.5s-36.5-16.3-36.5-36.5s16.4-36.5,36.5-36.5S393.2,129.5,393.2,149.6z
			"/>
		<circle class="st7" cx="356.7" cy="129.6" r="3.9"/>
		<circle class="st7" cx="356.7" cy="170.2" r="3.9"/>
		<circle class="st7" cx="377.1" cy="149.6" r="3.9"/>
		<circle class="st7" cx="336.7" cy="149.6" r="3.9"/>
		<ellipse transform="matrix(0.7071 -0.7071 0.7071 0.7071 4.3466 281.875)" class="st7" cx="342.4" cy="135.7" rx="3.9" ry="3.9"/>
		
			<ellipse transform="matrix(0.7071 -0.7071 0.7071 0.7071 -7.5265 310.5391)" class="st7" cx="371.1" cy="164.4" rx="3.9" ry="3.9"/>
		<ellipse transform="matrix(0.7071 -0.7071 0.7071 0.7071 12.908 301.9702)" class="st7" cx="371" cy="135.4" rx="3.9" ry="3.9"/>
		<ellipse transform="matrix(0.7071 -0.7071 0.7071 0.7071 -15.6836 290.127)" class="st7" cx="342.4" cy="164" rx="3.9" ry="3.9"/>
	</g>
	<path class="st8" d="M469.1,241.3H343.4c-3,0-5.4-2.4-5.4-5.4v-14.5c0-3,2.4-5.4,5.4-5.4h125.8c3,0,5.4,2.4,5.4,5.4v14.5
		C474.6,238.9,472.1,241.3,469.1,241.3z"/>
	<g class="st9">
		<defs>
			<rect id="SVGID_1_" x="294.7" y="196.5" class="st9" width="111.6" height="124"/>
		</defs>
		<clipPath id="SVGID_2_">
			<use xlink:href="#SVGID_1_"  style="overflow:visible;"/>
		</clipPath>
		<g id="XMLID_12_" class="st10">
			<g>
				<path d="M382.6,259.4v223.7c0,10.3-6.3,18.8-14,18.8H246.1c-7.7,0-14-8.5-14-18.8V259.4c0-10.3,6.3-18.8,14-18.8h122.5
					C376.3,240.6,382.6,249.1,382.6,259.4z"/>
			</g>
		</g>
	</g>
	<path class="st8" d="M471.9,260.1H409c-1.5,0-2.7-1.2-2.7-2.7v-7.3c0-1.5,1.2-2.7,2.7-2.7h62.9c1.5,0,2.7,1.2,2.7,2.7v7.3
		C474.6,258.9,473.4,260.1,471.9,260.1z"/>
	<polyline class="st11" points="469.3,393.4 405.8,330 343.2,392.6 	"/>
	<g>
		<g id="XMLID_3_">
			<g>
				<path class="st7" d="M360,228.8v152.8c0,7.4-6.1,13.5-13.5,13.5H228c-7.4,0-13.5-6.1-13.5-13.5V228.8c0-7.4,6.1-13.5,13.5-13.5
					h118.4C353.9,215.3,360,221.4,360,228.8z"/>
			</g>
			<path class="st12" d="M346.5,215.3h-19.2c7.4,0,13.5,6.1,13.5,13.5v152.8c0,7.4-6.1,13.5-13.5,13.5h19.2
				c7.4,0,13.5-6.1,13.5-13.5V228.8C360,221.4,353.9,215.3,346.5,215.3z"/>
			<path class="st13" d="M222.9,215.3l14.2,0c-5.5,0-10,6.1-10,13.5l0,152.8c0,7.4,4.5,13.5,10,13.5h-14.2c-5.5,0-10-6.1-10-13.5
				l0-152.8C212.9,221.4,217.4,215.3,222.9,215.3z"/>
			<g>
				<path class="st3" d="M346.5,215.3H228c-7.4,0-13.5,6.1-13.5,13.5v152.8c0,7.4,6.1,13.5,13.5,13.5h118.4
					c7.4,0,13.5-6.1,13.5-13.5V228.8C360,221.4,353.9,215.3,346.5,215.3z"/>
			</g>
		</g>
		<line class="st14" x1="245.6" y1="278.2" x2="328.9" y2="278.2"/>
		<line class="st15" x1="245.6" y1="248.9" x2="328.9" y2="248.9"/>
		<line class="st14" x1="245.6" y1="299.3" x2="304.9" y2="299.3"/>
		<line class="st14" x1="245.6" y1="341.7" x2="304.9" y2="341.7"/>
		<line class="st14" x1="245.6" y1="320.5" x2="323.4" y2="320.5"/>
		<line class="st14" x1="245.6" y1="362.8" x2="323.4" y2="362.8"/>
	</g>
</g>
</svg>
