<?xml version="1.0" encoding="utf-8"?>
<!-- Generator: Adobe Illustrator 19.2.0, SVG Export Plug-In . SVG Version: 6.00 Build 0)  -->
<svg version="1.1" id="Layer_1" xmlns="http://www.w3.org/2000/svg" xmlns:xlink="http://www.w3.org/1999/xlink" x="0px" y="0px"
	 viewBox="0 0 763.9 476.9" style="enable-background:new 0 0 763.9 476.9;" xml:space="preserve">
<style type="text/css">
	.st0{fill:#E2E5ED;}
	.st1{fill:#414C60;}
	.st2{fill:#4B5668;}
	.st3{fill:none;stroke:#232A40;stroke-width:7.7155;stroke-linecap:round;stroke-linejoin:round;stroke-miterlimit:10;}
	.st4{fill:#FFFFFF;}
	.st5{fill:#E5E0C8;}
	.st6{fill:none;stroke:#232A40;stroke-width:9.2198;stroke-linecap:round;stroke-linejoin:round;stroke-miterlimit:10;}
	.st7{fill:#232A40;}
	.st8{fill:#F0BF55;}
	.st9{fill:#E2AF4A;}
	.st10{fill:#FFD073;}
	.st11{fill:none;stroke:#232A40;stroke-width:9.1936;stroke-linecap:round;stroke-linejoin:round;stroke-miterlimit:10;}
	.st12{fill:none;stroke:#EEBE5E;stroke-width:9.1936;stroke-linecap:round;stroke-linejoin:round;stroke-miterlimit:10;}
</style>
<g>
	<ellipse class="st0" cx="382.4" cy="395.3" rx="220.8" ry="12"/>
	<polygon class="st1" points="536.2,239.4 224.8,239.4 380.5,164 	"/>
	<polygon class="st2" points="380.5,193.6 475,239.4 536.2,239.4 380.5,164 224.8,239.4 286,239.4 	"/>
	<polygon class="st1" points="532.9,241.2 380.5,315 256.1,254.7 228.1,241.2 275.9,241.2 485.1,241.2 	"/>
	<polygon class="st3" points="532.9,241.2 380.5,167.4 228.1,241.2 275.9,241.2 485.1,241.2 	"/>
	<g>
		<g id="XMLID_28_">
			<g>
				<path class="st4" d="M380.5,164.2c40,0,72.4,32.4,72.4,72.4c0,40-32.4,72.4-72.4,72.4c-40,0-72.4-32.4-72.4-72.4
					C308.1,196.6,340.5,164.2,380.5,164.2z"/>
			</g>
			<path class="st5" d="M430.9,184.6c5.9,10.5,9.2,22.5,9.2,35.4c0,40-32.4,72.4-72.4,72.4c-19.6,0-37.3-7.8-50.3-20.4
				c12.4,22.1,36,37,63.2,37c40,0,72.4-32.4,72.4-72.4C452.9,216.2,444.4,197.7,430.9,184.6z"/>
			<g>
				<path class="st6" d="M452.9,236.6c0,40-32.4,72.4-72.4,72.4c-40,0-72.4-32.4-72.4-72.4c0-40,32.4-72.4,72.4-72.4
					C420.5,164.2,452.9,196.6,452.9,236.6z"/>
			</g>
		</g>
		<g id="XMLID_24_">
			<path id="XMLID_27_" class="st7" d="M400.8,250.7L400.8,250.7c-8.1,6.8-16,9.9-23.5,9.2c-10-0.9-16.3-8.5-16.4-8.6
				c-1.7-2.1-4.8-2.4-6.9-0.8c-2.1,1.7-2.5,4.8-0.8,6.9c0.4,0.4,8.8,10.8,23,12.2c1.1,0.1,2.1,0.2,3.2,0.2c9.2,0,18.5-3.9,27.7-11.6
				c2.1-1.7,2.3-4.8,0.6-6.9C405.9,249.2,402.8,248.9,400.8,250.7z"/>
			<circle id="XMLID_26_" class="st7" cx="346.5" cy="230.1" r="5.8"/>
			<circle id="XMLID_25_" class="st7" cx="414.4" cy="230.1" r="5.8"/>
		</g>
	</g>
	<polygon class="st8" points="532.9,241.2 532.9,388.7 493,369.4 380.5,315 	"/>
	<polygon class="st9" points="532.9,388.7 228.1,388.7 256.1,375.2 268,369.4 493,369.4 	"/>
	<polygon class="st8" points="493,369.4 268,369.4 380.5,315 	"/>
	<polygon class="st8" points="256.1,254.7 228.1,241.2 228.1,388.7 256.1,375.2 268,369.4 380.5,315 	"/>
	<polygon class="st8" points="256.1,254.7 228.1,241.2 228.1,388.7 256.1,375.2 268,369.4 380.5,315 	"/>
	<polygon class="st10" points="258.7,256 256.1,254.7 228.1,241.2 228.1,388.7 256.1,375.2 258.7,373.9 	"/>
	<polygon class="st10" points="278.2,268.6 277.1,267.7 265.7,257 265.7,372.9 277.1,362.2 278.2,361.3 	"/>
	<polygon class="st10" points="504.9,254.7 504.9,375.2 532.9,388.7 532.9,241.2 	"/>
	<polyline class="st3" points="228.1,388.7 228.1,241.2 256.1,254.7 380.5,315 	"/>
	<polyline class="st3" points="380.5,315 532.9,241.2 532.9,388.7 	"/>
	<polygon class="st3" points="532.9,388.7 493,369.4 380.5,315 268,369.4 256.1,375.2 228.1,388.7 	"/>
	<g id="XMLID_22_">
		<g>
			<path class="st4" d="M503.5,151.2c35.7,0,64.6,20.9,64.6,46.7s-28.9,46.7-64.6,46.7c-13.3,0-25.7-2.9-35.9-7.9
				c-17.6,6.8-33.3,5.5-33.3,5.5c8.6-4.4,13.9-10.6,17.3-16.5c-2.5-2.4-4.7-5-6.5-7.8c-1.1-1.6-2-3.3-2.8-5.1
				c-2.2-4.7-3.4-9.7-3.4-14.9C438.9,172.1,467.9,151.2,503.5,151.2z"/>
		</g>
		<g>
			<path class="st11" d="M503.5,151.2c-35.7,0-64.6,20.9-64.6,46.7c0,5.2,1.2,10.2,3.4,14.9c0.8,1.7,1.8,3.4,2.8,5.1
				c1.8,2.8,4,5.4,6.5,7.8c-3.4,5.8-8.8,12-17.3,16.5c0,0,15.7,1.3,33.3-5.5c10.3,5,22.6,7.9,35.9,7.9c35.7,0,64.6-20.9,64.6-46.7
				S539.2,151.2,503.5,151.2z"/>
		</g>
	</g>
	<g id="XMLID_21_">
		<g>
			<path class="st4" d="M503.5,151.2c35.7,0,64.6,20.9,64.6,46.7s-28.9,46.7-64.6,46.7c-13.3,0-25.7-2.9-35.9-7.9
				c-17.6,6.8-33.3,5.5-33.3,5.5c8.6-4.4,13.9-10.6,17.3-16.5c-2.5-2.4-4.7-5-6.5-7.8c-1.1-1.6-2-3.3-2.8-5.1
				c-2.2-4.7-3.4-9.7-3.4-14.9C438.9,172.1,467.9,151.2,503.5,151.2z"/>
		</g>
		<g>
			<path class="st11" d="M503.5,151.2c-35.7,0-64.6,20.9-64.6,46.7c0,5.2,1.2,10.2,3.4,14.9c0.8,1.7,1.8,3.4,2.8,5.1
				c1.8,2.8,4,5.4,6.5,7.8c-3.4,5.8-8.8,12-17.3,16.5c0,0,15.7,1.3,33.3-5.5c10.3,5,22.6,7.9,35.9,7.9c35.7,0,64.6-20.9,64.6-46.7
				S539.2,151.2,503.5,151.2z"/>
		</g>
	</g>
	<g id="XMLID_20_">
		<g>
			<path class="st4" d="M503.5,151.2c35.7,0,64.6,20.9,64.6,46.7s-28.9,46.7-64.6,46.7c-13.3,0-25.7-2.9-35.9-7.9
				c-17.6,6.8-33.3,5.5-33.3,5.5c8.6-4.4,13.9-10.6,17.3-16.5c-2.5-2.4-4.7-5-6.5-7.8c-1.1-1.6-2-3.3-2.8-5.1
				c-2.2-4.7-3.4-9.7-3.4-14.9C438.9,172.1,467.9,151.2,503.5,151.2z"/>
		</g>
		<g>
			<path class="st4" d="M445.1,217.9"/>
			<path class="st5" d="M503.5,230.3c-13.3,0-25.7-2.9-35.9-7.9c-6,2.3-11.7,3.7-16.7,4.5c-3.4,5.5-8.6,11.2-16.6,15.3
				c0,0,15.7,1.3,33.3-5.5c10.3,5,22.6,7.9,35.9,7.9c35.7,0,64.6-20.9,64.6-46.7c0-2.4-0.3-4.8-0.8-7.1
				C562.6,213.2,535.8,230.3,503.5,230.3z"/>
		</g>
		<g>
			<path class="st11" d="M503.5,151.2c-35.7,0-64.6,20.9-64.6,46.7c0,5.2,1.2,10.2,3.4,14.9c0.8,1.7,1.8,3.4,2.8,5.1
				c1.8,2.8,4,5.4,6.5,7.8c-3.4,5.8-8.8,12-17.3,16.5c0,0,15.7,1.3,33.3-5.5c10.3,5,22.6,7.9,35.9,7.9c35.7,0,64.6-20.9,64.6-46.7
				S539.2,151.2,503.5,151.2z"/>
		</g>
	</g>
	<line class="st12" x1="472.1" y1="176.6" x2="537.8" y2="176.6"/>
	<line class="st12" x1="472.1" y1="194.5" x2="510.7" y2="194.5"/>
	<line class="st12" x1="472.1" y1="212.4" x2="529.1" y2="212.4"/>
</g>
</svg>
