<?xml version="1.0" encoding="utf-8"?>
<!-- Generator: Adobe Illustrator 19.2.0, SVG Export Plug-In . SVG Version: 6.00 Build 0)  -->
<svg version="1.1" id="Layer_1" xmlns="http://www.w3.org/2000/svg" xmlns:xlink="http://www.w3.org/1999/xlink" x="0px" y="0px"
	 viewBox="0 0 763.9 476.9" style="enable-background:new 0 0 763.9 476.9;" xml:space="preserve">
<style type="text/css">
	.st0{fill:#E2E5ED;}
	.st1{fill:#FFFFFF;}
	.st2{fill:#E5E0C8;}
	.st3{fill:none;stroke:#232A40;stroke-width:8;stroke-linecap:round;stroke-linejoin:round;stroke-miterlimit:10;}
	.st4{fill:none;stroke:#232A40;stroke-width:9.1936;stroke-linecap:round;stroke-linejoin:round;stroke-miterlimit:10;}
	.st5{fill:none;stroke:#EEBE5E;stroke-width:9.1936;stroke-linecap:round;stroke-linejoin:round;stroke-miterlimit:10;}
	.st6{fill:#232A40;}
	.st7{fill:none;stroke:#E3E6EE;stroke-width:9.1936;stroke-linecap:round;stroke-linejoin:round;stroke-miterlimit:10;}
	.st8{fill:#E3E6EE;}
</style>
<g>
	<ellipse class="st0" cx="143.4" cy="397.6" rx="75.7" ry="11.9"/>
	<ellipse class="st0" cx="621" cy="397.6" rx="75.7" ry="11.9"/>
	<g id="XMLID_5_">
		<g>
			<path class="st1" d="M141.8,265.2c34.7,0,62.8,28.1,62.8,62.8c0,34.7-28.1,62.8-62.8,62.8c-34.7,0-62.8-28.1-62.8-62.8
				C79,293.3,107.1,265.2,141.8,265.2z"/>
		</g>
		<path class="st2" d="M185.5,282.9c5.1,9.1,8,19.5,8,30.7c0,34.7-28.1,62.8-62.8,62.8c-17,0-32.4-6.7-43.7-17.7
			c10.8,19.2,31.3,32.1,54.8,32.1c34.7,0,62.8-28.1,62.8-62.8C204.7,310.3,197.3,294.3,185.5,282.9z"/>
		<g>
			<path class="st3" d="M204.7,328c0,34.7-28.1,62.8-62.8,62.8c-34.7,0-62.8-28.1-62.8-62.8c0-34.7,28.1-62.8,62.8-62.8
				C176.5,265.2,204.7,293.3,204.7,328z"/>
		</g>
	</g>
	<g id="XMLID_8_">
		<g>
			<path class="st1" d="M288.4,250c35.7,0,64.6,20.9,64.6,46.7s-28.9,46.7-64.6,46.7c-13.3,0-25.7-2.9-35.9-7.9
				c-17.6,6.8-33.3,5.5-33.3,5.5c8.6-4.4,13.9-10.6,17.3-16.5c-2.5-2.4-4.7-5-6.5-7.8c-1.1-1.6-2-3.3-2.8-5.1
				c-2.2-4.7-3.4-9.7-3.4-14.9C223.8,270.9,252.7,250,288.4,250z"/>
		</g>
		<g>
			<path class="st4" d="M288.4,250c-35.7,0-64.6,20.9-64.6,46.7c0,5.2,1.2,10.2,3.4,14.9c0.8,1.7,1.8,3.4,2.8,5.1
				c1.8,2.8,4,5.4,6.5,7.8c-3.4,5.8-8.8,12-17.3,16.5c0,0,15.7,1.3,33.3-5.5c10.3,5,22.6,7.9,35.9,7.9c35.7,0,64.6-20.9,64.6-46.7
				S324,250,288.4,250z"/>
		</g>
	</g>
	<g id="XMLID_7_">
		<g>
			<path class="st1" d="M288.4,250c35.7,0,64.6,20.9,64.6,46.7s-28.9,46.7-64.6,46.7c-13.3,0-25.7-2.9-35.9-7.9
				c-17.6,6.8-33.3,5.5-33.3,5.5c8.6-4.4,13.9-10.6,17.3-16.5c-2.5-2.4-4.7-5-6.5-7.8c-1.1-1.6-2-3.3-2.8-5.1
				c-2.2-4.7-3.4-9.7-3.4-14.9C223.8,270.9,252.7,250,288.4,250z"/>
		</g>
		<g>
			<path class="st4" d="M288.4,250c-35.7,0-64.6,20.9-64.6,46.7c0,5.2,1.2,10.2,3.4,14.9c0.8,1.7,1.8,3.4,2.8,5.1
				c1.8,2.8,4,5.4,6.5,7.8c-3.4,5.8-8.8,12-17.3,16.5c0,0,15.7,1.3,33.3-5.5c10.3,5,22.6,7.9,35.9,7.9c35.7,0,64.6-20.9,64.6-46.7
				S324,250,288.4,250z"/>
		</g>
	</g>
	<g id="XMLID_6_">
		<g>
			<path class="st1" d="M288.4,250c35.7,0,64.6,20.9,64.6,46.7s-28.9,46.7-64.6,46.7c-13.3,0-25.7-2.9-35.9-7.9
				c-17.6,6.8-33.3,5.5-33.3,5.5c8.6-4.4,13.9-10.6,17.3-16.5c-2.5-2.4-4.7-5-6.5-7.8c-1.1-1.6-2-3.3-2.8-5.1
				c-2.2-4.7-3.4-9.7-3.4-14.9C223.8,270.9,252.7,250,288.4,250z"/>
		</g>
		<g>
			<path class="st1" d="M230,316.7"/>
			<path class="st2" d="M288.4,329.1c-13.3,0-25.7-2.9-35.9-7.9c-6,2.3-11.7,3.7-16.7,4.5c-3.4,5.5-8.6,11.2-16.6,15.3
				c0,0,15.7,1.3,33.3-5.5c10.3,5,22.6,7.9,35.9,7.9c35.7,0,64.6-20.9,64.6-46.7c0-2.4-0.3-4.8-0.8-7.1
				C347.4,311.9,320.7,329.1,288.4,329.1z"/>
		</g>
		<g>
			<path class="st4" d="M288.4,250c-35.7,0-64.6,20.9-64.6,46.7c0,5.2,1.2,10.2,3.4,14.9c0.8,1.7,1.8,3.4,2.8,5.1
				c1.8,2.8,4,5.4,6.5,7.8c-3.4,5.8-8.8,12-17.3,16.5c0,0,15.7,1.3,33.3-5.5c10.3,5,22.6,7.9,35.9,7.9c35.7,0,64.6-20.9,64.6-46.7
				S324,250,288.4,250z"/>
		</g>
	</g>
	<line class="st5" x1="256.9" y1="275.4" x2="322.6" y2="275.4"/>
	<line class="st5" x1="256.9" y1="293.3" x2="295.6" y2="293.3"/>
	<line class="st5" x1="256.9" y1="311.1" x2="313.9" y2="311.1"/>
	<g id="XMLID_4_">
		<path id="XMLID_66_" class="st6" d="M159.4,340.3L159.4,340.3c-7,5.9-13.9,8.6-20.4,8c-8.6-0.8-14.1-7.4-14.2-7.4
			c-1.5-1.8-4.1-2.1-6-0.7c-1.8,1.5-2.1,4.1-0.7,6c0.3,0.4,7.6,9.4,19.9,10.6c0.9,0.1,1.8,0.1,2.8,0.1c8,0,16.1-3.4,24-10.1
			c1.8-1.5,2-4.2,0.5-6C163.9,339,161.2,338.7,159.4,340.3z"/>
		<circle id="XMLID_67_" class="st6" cx="112.4" cy="322.4" r="5"/>
		<circle id="XMLID_68_" class="st6" cx="171.3" cy="322.4" r="5"/>
	</g>
	<g id="XMLID_18_">
		<g>
			<path class="st1" d="M465.1,249c-35.7,0-64.6,20.9-64.6,46.7s28.9,46.7,64.6,46.7c13.3,0,25.7-2.9,35.9-7.9
				c17.6,6.8,33.3,5.5,33.3,5.5c-8.6-4.4-13.9-10.6-17.3-16.5c2.5-2.4,4.7-5,6.5-7.8c1.1-1.6,2-3.3,2.8-5.1
				c2.2-4.7,3.4-9.7,3.4-14.9C529.7,270,500.8,249,465.1,249z"/>
		</g>
		<g>
			<path class="st4" d="M465.1,249c35.7,0,64.6,20.9,64.6,46.7c0,5.2-1.2,10.2-3.4,14.9c-0.8,1.7-1.8,3.4-2.8,5.1
				c-1.8,2.8-4,5.4-6.5,7.8c3.4,5.8,8.8,12,17.3,16.5c0,0-15.7,1.3-33.3-5.5c-10.3,5-22.6,7.9-35.9,7.9c-35.7,0-64.6-20.9-64.6-46.7
				S429.4,249,465.1,249z"/>
		</g>
	</g>
	<g id="XMLID_17_">
		<g>
			<path class="st1" d="M465.1,249c-35.7,0-64.6,20.9-64.6,46.7s28.9,46.7,64.6,46.7c13.3,0,25.7-2.9,35.9-7.9
				c17.6,6.8,33.3,5.5,33.3,5.5c-8.6-4.4-13.9-10.6-17.3-16.5c2.5-2.4,4.7-5,6.5-7.8c1.1-1.6,2-3.3,2.8-5.1
				c2.2-4.7,3.4-9.7,3.4-14.9C529.7,270,500.8,249,465.1,249z"/>
		</g>
		<g>
			<path class="st4" d="M465.1,249c35.7,0,64.6,20.9,64.6,46.7c0,5.2-1.2,10.2-3.4,14.9c-0.8,1.7-1.8,3.4-2.8,5.1
				c-1.8,2.8-4,5.4-6.5,7.8c3.4,5.8,8.8,12,17.3,16.5c0,0-15.7,1.3-33.3-5.5c-10.3,5-22.6,7.9-35.9,7.9c-35.7,0-64.6-20.9-64.6-46.7
				S429.4,249,465.1,249z"/>
		</g>
	</g>
	<g id="XMLID_16_">
		<g>
			<path class="st1" d="M465.1,249c-35.7,0-64.6,20.9-64.6,46.7s28.9,46.7,64.6,46.7c13.3,0,25.7-2.9,35.9-7.9
				c17.6,6.8,33.3,5.5,33.3,5.5c-8.6-4.4-13.9-10.6-17.3-16.5c2.5-2.4,4.7-5,6.5-7.8c1.1-1.6,2-3.3,2.8-5.1
				c2.2-4.7,3.4-9.7,3.4-14.9C529.7,270,500.8,249,465.1,249z"/>
		</g>
		<g>
			<path class="st1" d="M523.5,315.8"/>
			<path class="st2" d="M465.1,328.2c13.3,0,25.7-2.9,35.9-7.9c6,2.3,11.7,3.7,16.7,4.5c3.4,5.5,8.6,11.2,16.6,15.3
				c0,0-15.7,1.3-33.3-5.5c-10.3,5-22.6,7.9-35.9,7.9c-35.7,0-64.6-20.9-64.6-46.7c0-2.4,0.3-4.8,0.8-7.1
				C406,311,432.8,328.2,465.1,328.2z"/>
		</g>
		<g>
			<path class="st4" d="M465.1,249c35.7,0,64.6,20.9,64.6,46.7c0,5.2-1.2,10.2-3.4,14.9c-0.8,1.7-1.8,3.4-2.8,5.1
				c-1.8,2.8-4,5.4-6.5,7.8c3.4,5.8,8.8,12,17.3,16.5c0,0-15.7,1.3-33.3-5.5c-10.3,5-22.6,7.9-35.9,7.9c-35.7,0-64.6-20.9-64.6-46.7
				S429.4,249,465.1,249z"/>
		</g>
	</g>
	<line class="st5" x1="496.6" y1="274.5" x2="430.9" y2="274.5"/>
	<line class="st5" x1="496.6" y1="292.3" x2="457.9" y2="292.3"/>
	<line class="st5" x1="496.6" y1="310.2" x2="439.6" y2="310.2"/>
	<g>
		<g id="XMLID_19_">
			<g>
				<path class="st1" d="M615.6,265.7c34.7,0,62.8,28.1,62.8,62.8c0,34.7-28.1,62.8-62.8,62.8c-34.7,0-62.8-28.1-62.8-62.8
					C552.8,293.8,580.9,265.7,615.6,265.7z"/>
			</g>
			<path class="st2" d="M659.3,283.4c5.1,9.1,8,19.5,8,30.7c0,34.7-28.1,62.8-62.8,62.8c-17,0-32.4-6.7-43.7-17.7
				c10.8,19.2,31.3,32.1,54.8,32.1c34.7,0,62.8-28.1,62.8-62.8C678.4,310.8,671.1,294.8,659.3,283.4z"/>
			<g>
				<path class="st3" d="M678.4,328.5c0,34.7-28.1,62.8-62.8,62.8c-34.7,0-62.8-28.1-62.8-62.8c0-34.7,28.1-62.8,62.8-62.8
					C650.3,265.7,678.4,293.8,678.4,328.5z"/>
			</g>
		</g>
		<g id="XMLID_11_">
			<path id="XMLID_15_" class="st6" d="M633.2,340.8L633.2,340.8c-7,5.9-13.9,8.6-20.4,8c-8.6-0.8-14.1-7.4-14.2-7.4
				c-1.5-1.8-4.1-2.1-6-0.7c-1.8,1.5-2.1,4.1-0.7,6c0.3,0.4,7.6,9.4,19.9,10.6c0.9,0.1,1.8,0.1,2.8,0.1c8,0,16.1-3.4,24-10.1
				c1.8-1.5,2-4.2,0.5-6C637.7,339.5,635,339.3,633.2,340.8z"/>
			<circle id="XMLID_14_" class="st6" cx="586.1" cy="322.9" r="5"/>
			<circle id="XMLID_13_" class="st6" cx="645.1" cy="322.9" r="5"/>
		</g>
	</g>
	<path class="st7" d="M306.5,223.4c0,0,20.4-31,63.1-31.8c51.4-0.9,64.7,31.8,64.7,31.8"/>
	<path class="st8" d="M444.5,228.9c0.3,4.3-4.1,7.3-7.9,5.4l-11.5-5.5l-11.5-5.5c-3.9-1.8-4.3-7.1-0.8-9.6l10.5-7.2l10.5-7.2
		c3.5-2.4,8.3-0.1,8.7,4.1l1,12.7L444.5,228.9z"/>
	<path class="st7" d="M439.9,368.3c0,0-20.4,31-63.1,31.8c-51.4,0.9-64.7-31.8-64.7-31.8"/>
	<path class="st8" d="M302,362.9c-0.3-4.3,4.1-7.3,7.9-5.4l11.5,5.5l11.5,5.5c3.9,1.8,4.3,7.1,0.8,9.6l-10.5,7.2l-10.5,7.2
		c-3.5,2.4-8.3,0.1-8.7-4.1l-1-12.7L302,362.9z"/>
</g>
</svg>
